<svg width="20" height="34" viewBox="0 0 20 34" fill="none" xmlns="http://www.w3.org/2000/svg">
<path d="M1.86165 0.227445L0 2.30944L1.86165 4.40894L3.68607 2.30944L1.86165 0.227445Z" fill="url(#paint0_linear_14_8)"/>
<path d="M4.43073 1.87205L2.77386 0H5.21262L6.90672 1.87205H4.43073Z" fill="url(#paint1_linear_14_8)"/>
<path d="M6.90672 2.72934H4.43073L2.68078 4.67138H5.21262L6.90672 2.72934Z" fill="url(#paint2_linear_14_8)"/>
<path d="M5.80835 10.0951L3.63022 8.36299L1.41485 10.0951L3.63022 11.8621L5.80835 10.0951Z" fill="url(#paint3_linear_14_8)"/>
<path d="M4.0584 12.562L6.06898 10.9874C6.08139 14.3699 5.99082 21.4469 6.05037 22.692C6.12483 24.2492 6.25515 25.3514 6.94396 26.6636C7.61395 27.9399 7.98648 28.3607 8.47051 28.868C8.91859 29.3377 10.5556 30.4077 11.1699 30.5826C11.7843 30.7576 13.2578 30.934 13.8321 30.8801C14.5767 30.8101 15.5013 30.5651 16.0474 30.4077C15.7372 30.7634 14.9453 31.6044 14.2602 32.1223C13.5752 32.6401 12.3738 32.9446 11.8587 33.032C11.6477 33.0962 10.9242 33.207 9.71782 33.137C8.51147 33.067 7.29147 32.4663 6.86949 32.1573C6.72677 32.0814 6.27376 31.7898 5.43602 30.8801C4.55738 29.9259 4.15769 28.3957 4.0584 27.6608V12.562Z" fill="url(#paint4_linear_14_8)"/>
<path d="M3.29512 12.562L1.19146 10.9874C1.19146 15.4721 1.19518 24.6236 1.21007 25.3514C1.22869 26.2612 1.69916 27.0726 2.10367 27.7658C2.42015 28.3082 3.25168 29.008 3.64884 29.2705C3.59299 29.0663 3.42854 28.5726 3.36959 28.2032C3.31374 27.8533 3.28271 27.2818 3.29512 27.0485V12.562Z" fill="url(#paint5_linear_14_8)"/>
<path d="M16.5687 22.4996C16.5687 22.5136 15.2655 23.7301 14.614 24.3366C14.6884 24.9525 14.4588 25.7713 14.3347 26.1037C14.6015 25.9288 15.273 25.3899 15.824 24.6341C16.5128 23.6893 16.5687 22.4821 16.5687 22.4996Z" fill="url(#paint6_linear_14_8)"/>
<path d="M19.5846 24.3366L17.4995 22.3421C17.3816 22.8903 17.0304 24.1617 16.5687 24.8615C15.9916 25.7363 15.2842 26.5236 13.497 27.4334C12.0672 28.1612 9.62473 28.0516 8.58221 27.9058C8.99798 28.4365 10.1237 29.5679 11.3002 29.8478C12.7709 30.1977 15.2167 30.2931 17.09 29.008C18.9516 27.7308 19.6156 25.4039 19.5846 24.3366Z" fill="url(#paint7_linear_14_8)"/>
<defs>
<linearGradient id="paint0_linear_14_8" x1="-1.07578" y1="3.24317" x2="18.0668" y2="27.8913" gradientUnits="userSpaceOnUse">
<stop offset="0.235887" stop-color="#FFFDC5"/>
<stop offset="1" stop-color="#9155FD"/>
</linearGradient>
<linearGradient id="paint1_linear_14_8" x1="-1.07578" y1="3.24317" x2="18.0668" y2="27.8913" gradientUnits="userSpaceOnUse">
<stop offset="0.235887" stop-color="#FFFDC5"/>
<stop offset="1" stop-color="#9155FD"/>
</linearGradient>
<linearGradient id="paint2_linear_14_8" x1="-1.07578" y1="3.24317" x2="18.0668" y2="27.8913" gradientUnits="userSpaceOnUse">
<stop offset="0.235887" stop-color="#FFFDC5"/>
<stop offset="1" stop-color="#9155FD"/>
</linearGradient>
<linearGradient id="paint3_linear_14_8" x1="-1.07578" y1="3.24317" x2="18.0668" y2="27.8913" gradientUnits="userSpaceOnUse">
<stop offset="0.235887" stop-color="#FFFDC5"/>
<stop offset="1" stop-color="#9155FD"/>
</linearGradient>
<linearGradient id="paint4_linear_14_8" x1="-1.07578" y1="3.24317" x2="18.0668" y2="27.8913" gradientUnits="userSpaceOnUse">
<stop offset="0.235887" stop-color="#FFFDC5"/>
<stop offset="1" stop-color="#9155FD"/>
</linearGradient>
<linearGradient id="paint5_linear_14_8" x1="-1.07578" y1="3.24317" x2="18.0668" y2="27.8913" gradientUnits="userSpaceOnUse">
<stop offset="0.235887" stop-color="#FFFDC5"/>
<stop offset="1" stop-color="#9155FD"/>
</linearGradient>
<linearGradient id="paint6_linear_14_8" x1="-1.07578" y1="3.24317" x2="18.0668" y2="27.8913" gradientUnits="userSpaceOnUse">
<stop offset="0.235887" stop-color="#FFFDC5"/>
<stop offset="1" stop-color="#9155FD"/>
</linearGradient>
<linearGradient id="paint7_linear_14_8" x1="-1.07578" y1="3.24317" x2="18.0668" y2="27.8913" gradientUnits="userSpaceOnUse">
<stop offset="0.235887" stop-color="#FFFDC5"/>
<stop offset="1" stop-color="#9155FD"/>
</linearGradient>
</defs>
</svg>
