<svg width="48" height="48" viewBox="0 0 48 48" fill="none" xmlns="http://www.w3.org/2000/svg">
<path d="M0 8.21164C0 3.67648 3.67648 0 8.21164 0H39.4159C43.951 0 47.6275 3.67648 47.6275 8.21164V39.5801C47.6275 44.1153 43.951 47.7917 39.4159 47.7917H8.21163C3.67647 47.7917 0 44.1153 0 39.5801V8.21164Z" fill="url(#paint0_linear_14_9)"/>
<path d="M14.2812 5.26751L12 7.71622L14.2812 10.1855L16.5169 7.71622L14.2812 5.26751Z" fill="white"/>
<path d="M17.4294 7.20179L15.3991 5H18.3875L20.4634 7.20179H17.4294Z" fill="white"/>
<path d="M20.4634 8.21008H17.4294L15.285 10.4942H18.3875L20.4634 8.21008Z" fill="white"/>
<path d="M19.1175 16.8732L16.4484 14.836L13.7337 16.8732L16.4484 18.9515L19.1175 16.8732Z" fill="white"/>
<path d="M16.9731 19.7746L19.4369 17.9226C19.4521 21.9009 19.3411 30.2245 19.4141 31.689C19.5053 33.5203 19.665 34.8167 20.5091 36.36C21.3301 37.8612 21.7866 38.356 22.3797 38.9528C22.9287 39.5052 24.9347 40.7636 25.6875 40.9694C26.4403 41.1752 28.246 41.3827 28.9497 41.3192C29.8622 41.2369 30.9952 40.9488 31.6644 40.7636C31.2842 41.182 30.3139 42.1711 29.4744 42.7802C28.6349 43.3893 27.1627 43.7473 26.5316 43.8502C26.273 43.9257 25.3864 44.056 23.9081 43.9737C22.4299 43.8914 20.9349 43.1849 20.4178 42.8214C20.2429 42.7322 19.6878 42.3892 18.6612 41.3192C17.5846 40.1969 17.0948 38.3972 16.9731 37.5329V19.7746Z" fill="white"/>
<path d="M16.0378 19.7746L13.46 17.9226C13.46 23.1973 13.4646 33.9607 13.4828 34.8167C13.5056 35.8868 14.0821 36.8411 14.5778 37.6564C14.9656 38.2943 15.9846 39.1174 16.4712 39.4261C16.4028 39.186 16.2013 38.6052 16.1291 38.1708C16.0606 37.7593 16.0226 37.0871 16.0378 36.8127V19.7746Z" fill="white"/>
<path d="M32.3031 31.4626C32.3031 31.4791 30.7062 32.9099 29.9078 33.6232C29.9991 34.3476 29.7177 35.3106 29.5656 35.7016C29.8926 35.4958 30.7154 34.862 31.3906 33.973C32.2347 32.8619 32.3031 31.442 32.3031 31.4626Z" fill="white"/>
<path d="M35.9987 33.6232L33.4437 31.2774C33.2993 31.9222 32.8689 33.4175 32.3031 34.2406C31.5959 35.2694 30.729 36.1954 28.5391 37.2654C26.7871 38.1215 23.7941 37.9925 22.5166 37.821C23.026 38.4452 24.4054 39.7759 25.8472 40.1051C27.6494 40.5167 30.6464 40.6289 32.9419 39.1174C35.2231 37.6153 36.0368 34.8785 35.9987 33.6232Z" fill="white"/>
<defs>
<linearGradient id="paint0_linear_14_9" x1="4.35217" y1="-1.23175" x2="32.1896" y2="47.7917" gradientUnits="userSpaceOnUse">
<stop offset="0.0398221" stop-color="#FFFDC5"/>
<stop offset="1" stop-color="#9155FD"/>
</linearGradient>
</defs>
</svg>
